# xmcd CD database file
#
# Track frame offsets:
#	150
#	18255
#	36939
#	56120
#	76719
#	90127
#	115398
#	139718
#	163556
#	184261
#
# Disc length: 2675 seconds
#
# Revision: 0
# Processed by: cddbd v1.5.2PL0 Copyright (c) Steve Scherf et al.
# Submitted via: CDex 1.79
#
DISCID=740a710a
DTITLE=Sunny Helms - Sunny Helms
DYEAR=2005
DGENRE=Country
TTITLE0=To My Knees
TTITLE1=Anymore
TTITLE2=Days Of My Life
TTITLE3=Muriel
TTITLE4=Pick Me Up
TTITLE5=Where You Are
TTITLE6=Find Your Way Home
TTITLE7=If I Were You
TTITLE8=Hold On To Me
TTITLE9=Runnin` 
EXTD=YEAR: 2005
EXTT0=
EXTT1=
EXTT2=
EXTT3=
EXTT4=
EXTT5=
EXTT6=
EXTT7=
EXTT8=
EXTT9=
PLAYORDER=
